<mxfile host="app.diagrams.net" agent="Mozilla/5.0 (Windows NT 10.0; Win64; x64) AppleWebKit/537.36 (KHTML, like Gecko) Chrome/136.0.0.0 Safari/537.36" version="27.0.6">
  <diagram name="Page-1" id="xCEt2-cuA4AQA1XrN2wW">
    <mxGraphModel dx="1636" dy="1517" grid="1" gridSize="10" guides="1" tooltips="1" connect="1" arrows="1" fold="1" page="1" pageScale="1" pageWidth="850" pageHeight="1100" math="0" shadow="0">
      <root>
        <mxCell id="0" />
        <mxCell id="1" parent="0" />
        <mxCell id="yJykGTTqn81DHPjlIyoI-1" value="" style="rounded=1;whiteSpace=wrap;html=1;strokeColor=#0070F2;fillColor=#EBF8FF;arcSize=24;absoluteArcSize=1;imageWidth=64;imageHeight=64;strokeWidth=1.5;" vertex="1" parent="1">
          <mxGeometry x="-160" y="-100" width="830" height="610" as="geometry" />
        </mxCell>
        <mxCell id="yJykGTTqn81DHPjlIyoI-2" value="BTP" style="image;image=img/lib/sap/SAP_Logo.svg;editableCssRules=.*;part=1;verticalLabelPosition=middle;labelBackgroundColor=none;verticalAlign=middle;imageAspect=0;labelPosition=right;align=left;fontSize=16;fontStyle=1;spacingLeft=0;fontColor=#002A86;spacing=0;" vertex="1" parent="yJykGTTqn81DHPjlIyoI-1">
          <mxGeometry width="37" height="19" relative="1" as="geometry">
            <mxPoint x="20" y="20" as="offset" />
          </mxGeometry>
        </mxCell>
        <mxCell id="yJykGTTqn81DHPjlIyoI-3" value="UERP-SA-DEV&lt;div&gt;&lt;span style=&quot;font-weight: normal;&quot;&gt;&lt;font style=&quot;font-size: 12px;&quot;&gt;Multi-Cloud&lt;/font&gt;&lt;/span&gt;&lt;/div&gt;" style="rounded=1;whiteSpace=wrap;html=1;strokeColor=#475E75;fillColor=#ffffff;arcSize=24;absoluteArcSize=1;imageWidth=64;imageHeight=64;strokeWidth=1.5;part=1;verticalAlign=top;align=left;fontSize=16;fontStyle=1;spacingLeft=10;spacingTop=10;" vertex="1" parent="yJykGTTqn81DHPjlIyoI-1">
          <mxGeometry x="10" y="50" width="760" height="250" as="geometry" />
        </mxCell>
        <mxCell id="yJykGTTqn81DHPjlIyoI-5" value="UERP-SA-DEV-IS&lt;div&gt;&lt;span style=&quot;font-weight: normal;&quot;&gt;&lt;font style=&quot;font-size: 12px;&quot;&gt;Multi-Cloud&lt;/font&gt;&lt;/span&gt;&lt;/div&gt;" style="rounded=1;whiteSpace=wrap;html=1;strokeColor=#475E75;fillColor=#ffffff;arcSize=24;absoluteArcSize=1;imageWidth=64;imageHeight=64;strokeWidth=1.5;part=1;verticalAlign=top;align=left;fontSize=16;fontStyle=1;spacingLeft=10;spacingTop=10;" vertex="1" parent="yJykGTTqn81DHPjlIyoI-1">
          <mxGeometry x="10" y="320" width="800" height="270" as="geometry" />
        </mxCell>
        <mxCell id="yJykGTTqn81DHPjlIyoI-13" value="" style="edgeStyle=orthogonalEdgeStyle;rounded=0;orthogonalLoop=1;jettySize=auto;html=1;entryX=0.013;entryY=0.507;entryDx=0;entryDy=0;entryPerimeter=0;" edge="1" parent="yJykGTTqn81DHPjlIyoI-1" source="yJykGTTqn81DHPjlIyoI-6" target="yJykGTTqn81DHPjlIyoI-9">
          <mxGeometry relative="1" as="geometry">
            <mxPoint x="180" y="140" as="targetPoint" />
          </mxGeometry>
        </mxCell>
        <mxCell id="yJykGTTqn81DHPjlIyoI-6" value="" style="shape=mxgraph.sap.icon;labelPosition=center;verticalLabelPosition=bottom;align=center;verticalAlign=top;strokeWidth=1;strokeColor=#D5DADD;fillColor=#EDEFF0;gradientColor=#FCFCFC;gradientDirection=west;aspect=fixed;SAPIcon=SAP_Build_Work_Zone_-_Standard_Edition" vertex="1" parent="yJykGTTqn81DHPjlIyoI-1">
          <mxGeometry x="40" y="120" width="50" height="50" as="geometry" />
        </mxCell>
        <mxCell id="yJykGTTqn81DHPjlIyoI-7" value="&lt;font style=&quot;font-size: 9px;&quot; face=&quot;arial&quot; color=&quot;#1d2d3e&quot;&gt;&lt;span style=&quot;background-color: rgb(251, 251, 251);&quot;&gt;&lt;b style=&quot;&quot;&gt;Build Workzone&lt;/b&gt;&lt;/span&gt;&lt;/font&gt;" style="text;whiteSpace=wrap;html=1;align=center;verticalAlign=top;points=[[0,0,0,0,0],[0,0.25,0,0,0],[0,0.5,0,0,0],[0,0.75,0,0,0],[0,1,0,0,0],[0.25,0,0,0,0],[0.25,1,0,0,0],[0.5,0,0,0,0],[0.5,1,0,0,0],[0.75,0,0,0,0],[0.75,1,0,0,0],[1,0,0,0,0],[1,0.25,0,0,0],[1,0.5,0,0,0],[1,0.75,0,0,0],[1,1,0,0,0]];" vertex="1" parent="yJykGTTqn81DHPjlIyoI-1">
          <mxGeometry x="10" y="180" width="130" height="30" as="geometry" />
        </mxCell>
        <mxCell id="yJykGTTqn81DHPjlIyoI-9" value="" style="shape=mxgraph.sap.icon;labelPosition=center;verticalLabelPosition=bottom;align=center;verticalAlign=top;strokeWidth=1;strokeColor=#D5DADD;fillColor=#EDEFF0;gradientColor=#FCFCFC;gradientDirection=west;aspect=fixed;SAPIcon=SAP_Build_Process_Automation" vertex="1" parent="yJykGTTqn81DHPjlIyoI-1">
          <mxGeometry x="190" y="120" width="50" height="50" as="geometry" />
        </mxCell>
        <mxCell id="yJykGTTqn81DHPjlIyoI-10" value="&lt;font style=&quot;font-size: 9px;&quot; face=&quot;arial&quot; color=&quot;#1d2d3e&quot;&gt;&lt;span style=&quot;background-color: rgb(251, 251, 251);&quot;&gt;&lt;b style=&quot;&quot;&gt;Build process Automation&lt;/b&gt;&lt;/span&gt;&lt;/font&gt;" style="text;whiteSpace=wrap;html=1;align=center;verticalAlign=top;points=[[0,0,0,0,0],[0,0.25,0,0,0],[0,0.5,0,0,0],[0,0.75,0,0,0],[0,1,0,0,0],[0.25,0,0,0,0],[0.25,1,0,0,0],[0.5,0,0,0,0],[0.5,1,0,0,0],[0.75,0,0,0,0],[0.75,1,0,0,0],[1,0,0,0,0],[1,0.25,0,0,0],[1,0.5,0,0,0],[1,0.75,0,0,0],[1,1,0,0,0]];" vertex="1" parent="yJykGTTqn81DHPjlIyoI-1">
          <mxGeometry x="150" y="180" width="130" height="30" as="geometry" />
        </mxCell>
        <mxCell id="yJykGTTqn81DHPjlIyoI-4" value="&lt;b style=&quot;border-color: var(--border-color); color: rgb(0, 112, 242); font-size: 16px;&quot;&gt;Solution Diagram Example: Work Zone&lt;/b&gt;" style="text;html=1;align=left;verticalAlign=middle;resizable=0;points=[];autosize=1;strokeColor=none;fillColor=none;fontSize=12;fontColor=#1d2d3e;fontFamily=Helvetica;" vertex="1" parent="1">
          <mxGeometry x="-50" y="-110" width="320" height="30" as="geometry" />
        </mxCell>
      </root>
    </mxGraphModel>
  </diagram>
</mxfile>
